<svg xmlns="http://www.w3.org/2000/svg" xmlns:xlink="http://www.w3.org/1999/xlink" id="evA4hI5dD261" shape-rendering="geometricPrecision" text-rendering="geometricPrecision" viewBox="0 0 17 17"><style>@keyframes evA4hI5dD263_s_do{0%{stroke-dashoffset:6.2}17.5%,82.5%{stroke-dashoffset:-6.24}}@keyframes evA4hI5dD264_s_do{0%,10%,90%{stroke-dashoffset:6.8}22.5%,77.5%{stroke-dashoffset:-6.8}}@keyframes evA4hI5dD265_s_do{0%,17.5%,82.5%{stroke-dashoffset:2.32}27.5%,72.5%{stroke-dashoffset:-2.32}}@keyframes evA4hI5dD266_s_do{0%,22.5%,77.5%{stroke-dashoffset:2.47}32.5%,67.5%{stroke-dashoffset:-2.47}}@keyframes evA4hI5dD267_s_do{0%,27.5%,72.5%{stroke-dashoffset:5.42}40%,60%{stroke-dashoffset:-5.42}}@keyframes evA4hI5dD268_s_do{0%,32.5%,67.5%{stroke-dashoffset:6.13}50%{stroke-dashoffset:-6.1}}#evA4hI5dD263{animation:evA4hI5dD263_s_do 4000ms linear infinite normal forwards}#evA4hI5dD264{animation:evA4hI5dD264_s_do 4000ms linear infinite normal forwards}#evA4hI5dD265{animation:evA4hI5dD265_s_do 4000ms linear infinite normal forwards}#evA4hI5dD266{animation:evA4hI5dD266_s_do 4000ms linear infinite normal forwards}#evA4hI5dD267{animation:evA4hI5dD267_s_do 4000ms linear infinite normal forwards}#evA4hI5dD268{animation:evA4hI5dD268_s_do 4000ms linear infinite normal forwards}</style><path fill="none" stroke="rgba(255,255,255,0.4)" stroke-dasharray="0" stroke-linecap="round" stroke-width="2.2" d="M2.81592,12.9564c0,0,.699-2.7972,1.513-6.05155.285-1.1412,1.311-1.9416,2.487-1.9416c1.177,0,2.202.8004,2.487,1.9416.457,1.8276.87798,3.50995,1.15898,4.63435.2059.8244.9668,1.4172,1.816,1.4172c1.0186,0,1.872-.8534,1.872-1.872c0-2.36515,0-6.12835,0-6.12835"/><path id="evA4hI5dD263" fill="none" stroke="#fff" stroke-dasharray="6.24" stroke-dashoffset="6.2" stroke-linecap="round" stroke-width="3.3" d="M2.81592,12.9564c0,0,.699-2.7972,1.513-6.05155"/><path id="evA4hI5dD264" fill="none" stroke="#fff" stroke-dasharray="6.8" stroke-dashoffset="6.8" stroke-linecap="round" stroke-width="3.3" d="M4.32892,6.90485c.285-1.1412,1.311-1.9416,2.487-1.9416c1.177,0,2.202.8004,2.487,1.9416"/><path id="evA4hI5dD265" fill="none" stroke="#fff" stroke-dasharray="2.32" stroke-dashoffset="2.32" stroke-linecap="round" stroke-width="3.3" d="M9.30292,6.90485c.093946.375699.326476,1.305406.561072,2.243404"/><path id="evA4hI5dD266" fill="none" stroke="#fff" stroke-dasharray="2.47" stroke-dashoffset="2.47" stroke-linecap="round" stroke-width="3.3" d="M9.863992,9.148254c.255929,1.023295.514316,2.056457.597908,2.390946"/><path id="evA4hI5dD267" fill="none" stroke="#fff" stroke-dasharray="5.42" stroke-dashoffset="5.42" stroke-linecap="round" stroke-width="3.3" d="M10.4619,11.5392c.2059.8244.9668,1.4172,1.816,1.4172c1.0186,0,1.872-.8534,1.872-1.872"/><path id="evA4hI5dD268" fill="none" stroke="#fff" stroke-dasharray="6.13" stroke-dashoffset="6.13" stroke-linecap="round" stroke-width="3.3" d="M14.1499,11.0844c0-2.36515,0-6.12835,0-6.12835"/></svg>